<mxfile host="app.diagrams.net" modified="2024-02-16T14:32:36.698Z" agent="Mozilla/5.0 (X11; Linux x86_64; rv:109.0) Gecko/20100101 Firefox/119.0" etag="Dm5_IeMAAdT43PsdYjDu" version="23.1.4" type="device">
  <diagram name="Page-1" id="C5eJdvvLRLpj0kCeoj5C">
    <mxGraphModel dx="989" dy="567" grid="1" gridSize="10" guides="1" tooltips="1" connect="1" arrows="1" fold="1" page="1" pageScale="1" pageWidth="850" pageHeight="1100" math="0" shadow="0">
      <root>
        <mxCell id="0" />
        <mxCell id="1" parent="0" />
        <mxCell id="m1-u2TJAcXCcuv39WsT8-17" style="edgeStyle=orthogonalEdgeStyle;rounded=0;orthogonalLoop=1;jettySize=auto;html=1;" edge="1" parent="1" source="m1-u2TJAcXCcuv39WsT8-2">
          <mxGeometry relative="1" as="geometry">
            <mxPoint x="360" y="130" as="targetPoint" />
          </mxGeometry>
        </mxCell>
        <mxCell id="m1-u2TJAcXCcuv39WsT8-2" value="" style="ellipse;whiteSpace=wrap;html=1;aspect=fixed;fillColor=#000000;" vertex="1" parent="1">
          <mxGeometry x="340" y="30" width="40" height="40" as="geometry" />
        </mxCell>
        <mxCell id="m1-u2TJAcXCcuv39WsT8-52" value="" style="group" vertex="1" connectable="0" parent="1">
          <mxGeometry x="347.5" y="760" width="55" height="55" as="geometry" />
        </mxCell>
        <mxCell id="m1-u2TJAcXCcuv39WsT8-53" value="" style="ellipse;whiteSpace=wrap;html=1;aspect=fixed;gradientColor=default;fillColor=none;" vertex="1" parent="m1-u2TJAcXCcuv39WsT8-52">
          <mxGeometry width="55" height="55" as="geometry" />
        </mxCell>
        <mxCell id="m1-u2TJAcXCcuv39WsT8-54" value="" style="ellipse;whiteSpace=wrap;html=1;aspect=fixed;fillColor=#000000;" vertex="1" parent="m1-u2TJAcXCcuv39WsT8-52">
          <mxGeometry x="7.5" y="7.5" width="40" height="40" as="geometry" />
        </mxCell>
        <mxCell id="m1-u2TJAcXCcuv39WsT8-61" value="Selecting Search Option" style="ellipse;whiteSpace=wrap;html=1;" vertex="1" parent="1">
          <mxGeometry x="300" y="130" width="120" height="60" as="geometry" />
        </mxCell>
        <mxCell id="m1-u2TJAcXCcuv39WsT8-62" value="Selecting Search Option" style="ellipse;whiteSpace=wrap;html=1;" vertex="1" parent="1">
          <mxGeometry x="180" y="220" width="120" height="60" as="geometry" />
        </mxCell>
        <mxCell id="m1-u2TJAcXCcuv39WsT8-63" value="Selecting Search Option" style="ellipse;whiteSpace=wrap;html=1;" vertex="1" parent="1">
          <mxGeometry x="420" y="220" width="120" height="60" as="geometry" />
        </mxCell>
        <mxCell id="m1-u2TJAcXCcuv39WsT8-64" value="Selecting Search Option" style="ellipse;whiteSpace=wrap;html=1;" vertex="1" parent="1">
          <mxGeometry x="180" y="330" width="120" height="60" as="geometry" />
        </mxCell>
        <mxCell id="m1-u2TJAcXCcuv39WsT8-65" value="Selecting Search Option" style="ellipse;whiteSpace=wrap;html=1;" vertex="1" parent="1">
          <mxGeometry x="420" y="330" width="120" height="60" as="geometry" />
        </mxCell>
        <mxCell id="m1-u2TJAcXCcuv39WsT8-66" value="Selecting Search Option" style="ellipse;whiteSpace=wrap;html=1;" vertex="1" parent="1">
          <mxGeometry x="300" y="420" width="120" height="60" as="geometry" />
        </mxCell>
      </root>
    </mxGraphModel>
  </diagram>
</mxfile>
